<?xml version="1.0" encoding="UTF-8"?>
<svg id="Calque_1" data-name="Calque 1" xmlns="http://www.w3.org/2000/svg" xmlns:xlink="http://www.w3.org/1999/xlink" viewBox="0 0 419.99 150.26">
  <defs>
    <clipPath id="clippath">
      <rect x="373.75" y="105.63" width="40.66" height="40.66" style="fill: none;"/>
    </clipPath>
    <clipPath id="clippath-1">
      <polygon points="409 101.35 419.99 135.2 381.32 147.76 370.32 113.93 409 101.35" style="fill: none;"/>
    </clipPath>
    <clipPath id="clippath-2">
      <polygon points="409 101.35 419.99 135.2 381.32 147.76 370.32 113.93 409 101.35" style="fill: none;"/>
    </clipPath>
    <clipPath id="clippath-3">
      <rect x="21.34" y="44.63" width="20.33" height="44.05" style="fill: none;"/>
    </clipPath>
    <clipPath id="clippath-4">
      <rect x="16.98" y="51.2" width="31.78" height="31.26" transform="translate(-29.02 25.4) rotate(-30.01)" style="fill: none;"/>
    </clipPath>
    <clipPath id="clippath-5">
      <rect x="16.98" y="51.2" width="31.78" height="31.26" transform="translate(-29.02 25.4) rotate(-30.01)" style="fill: none;"/>
    </clipPath>
    <clipPath id="clippath-6">
      <rect x="16.98" y="51.2" width="31.78" height="31.26" transform="translate(-29.02 25.4) rotate(-30.01)" style="fill: none;"/>
    </clipPath>
    <clipPath id="clippath-7">
      <rect x="17.95" y="44.63" width="20.33" height="44.05" style="fill: none;"/>
    </clipPath>
    <clipPath id="clippath-8">
      <polygon points="10.26 60.2 37.78 44.3 53.41 71.37 25.9 87.27 10.26 60.2" style="fill: none;"/>
    </clipPath>
    <clipPath id="clippath-9">
      <polygon points="10.26 60.2 37.78 44.3 53.41 71.37 25.9 87.27 10.26 60.2" style="fill: none;"/>
    </clipPath>
    <clipPath id="clippath-10">
      <polygon points="10.26 60.2 37.78 44.3 53.41 71.37 25.9 87.27 10.26 60.2" style="fill: none;"/>
    </clipPath>
    <clipPath id="clippath-11">
      <rect x="11.17" y="48.02" width="13.55" height="37.27" style="fill: none;"/>
    </clipPath>
    <clipPath id="clippath-12">
      <polygon points="0 63.66 22.66 46.12 40.19 68.79 17.53 86.32 0 63.66" style="fill: none;"/>
    </clipPath>
    <clipPath id="clippath-13">
      <polygon points="0 63.66 22.66 46.12 40.19 68.79 17.53 86.32 0 63.66" style="fill: none;"/>
    </clipPath>
    <clipPath id="clippath-14">
      <polygon points="0 63.66 22.66 46.12 40.19 68.79 17.53 86.32 0 63.66" style="fill: none;"/>
    </clipPath>
    <clipPath id="clippath-15">
      <rect x="265.32" y="37.86" width="23.72" height="20.33" style="fill: none;"/>
    </clipPath>
    <clipPath id="clippath-16">
      <rect x="215.12" y="-21.14" width="45.75" height="101.66" transform="translate(175.68 261.29) rotate(-82.05)" style="fill: none;"/>
    </clipPath>
    <clipPath id="clippath-17">
      <rect x="215.12" y="-21.14" width="45.75" height="101.66" transform="translate(175.68 261.29) rotate(-82.05)" style="fill: none;"/>
    </clipPath>
    <clipPath id="clippath-18">
      <rect x="231.43" y="7.47" width="10.17" height="33.78" style="fill: none;"/>
    </clipPath>
    <clipPath id="clippath-19">
      <rect x="215.12" y="-21.14" width="45.75" height="101.66" transform="translate(175.68 261.29) rotate(-82.05)" style="fill: none;"/>
    </clipPath>
    <clipPath id="clippath-20">
      <rect x="215.12" y="-21.14" width="45.75" height="101.66" transform="translate(175.68 261.29) rotate(-82.05)" style="fill: none;"/>
    </clipPath>
    <clipPath id="clippath-21">
      <rect x="187.38" y="17.53" width="16.94" height="27.11" style="fill: none;"/>
    </clipPath>
    <clipPath id="clippath-22">
      <rect x="215.12" y="-21.14" width="45.75" height="101.66" transform="translate(175.68 261.29) rotate(-82.05)" style="fill: none;"/>
    </clipPath>
    <clipPath id="clippath-23">
      <rect x="215.12" y="-21.14" width="45.75" height="101.66" transform="translate(175.68 261.29) rotate(-82.05)" style="fill: none;"/>
    </clipPath>
    <clipPath id="clippath-24">
      <rect x="211.1" y="24.3" width="6.78" height="13.55" style="fill: none;"/>
    </clipPath>
    <clipPath id="clippath-25">
      <rect x="215.12" y="-21.14" width="45.75" height="101.66" transform="translate(175.68 261.29) rotate(-82.05)" style="fill: none;"/>
    </clipPath>
    <clipPath id="clippath-26">
      <rect x="215.12" y="-21.14" width="45.75" height="101.66" transform="translate(175.68 261.29) rotate(-82.05)" style="fill: none;"/>
    </clipPath>
    <clipPath id="clippath-27">
      <rect x="251.76" y="37.86" width="10.17" height="10.17" style="fill: none;"/>
    </clipPath>
    <clipPath id="clippath-28">
      <rect x="215.12" y="-21.14" width="45.75" height="101.66" transform="translate(175.68 261.29) rotate(-82.05)" style="fill: none;"/>
    </clipPath>
    <clipPath id="clippath-29">
      <rect x="215.12" y="-21.14" width="45.75" height="101.66" transform="translate(175.68 261.29) rotate(-82.05)" style="fill: none;"/>
    </clipPath>
    <clipPath id="clippath-30">
      <rect x="207.71" y="44.63" width="50.83" height="20.33" style="fill: none;"/>
    </clipPath>
    <clipPath id="clippath-31">
      <polygon points="222.97 37.49 257.72 58.6 244.54 80.32 209.78 59.21 222.97 37.49" style="fill: none;"/>
    </clipPath>
    <clipPath id="clippath-32">
      <polygon points="222.97 37.49 257.72 58.6 244.54 80.32 209.78 59.21 222.97 37.49" style="fill: none;"/>
    </clipPath>
  </defs>
  <g style="clip-path: url(#clippath);">
    <g style="clip-path: url(#clippath-1);">
      <g style="clip-path: url(#clippath-2);">
        <path d="m387.19,145.84c-1.77-.71-2.91-2.04-3.84-3.65-2.25-3.88-4.65-7.69-6.91-11.57-.73-1.3-1.38-2.63-1.91-4-.49-1.27-.09-2.37.83-2.89.97-.54,2.22-.3,2.99.87,1.26,1.96,2.32,4.02,3.49,6.04,1.77,3.06,3.63,6.05,5.31,9.13.99,1.79,1.32,3.77.74,5.82l-.71.24Zm24.16-37.24c-1.32-1.13-2.86-1.88-4.65-1.88-4.59,0-9.2.08-13.82.23-.9.03-1.8.24-2.62.64-.53.25-1.16.98-1.15,1.47.03.57.65,1.18,1.14,1.63.29.25.83.3,1.28.34,5.29.36,10.59.68,15.88-.16,1.42-.23,2.73-1.18,4.09-1.81l-.16-.45Zm-6.55,18.84c-3.59-2.9-7.09-5.88-11.41-7.78-1.03-.45-1.93-1.18-2.94-1.72-.89-.46-1.79-.97-2.77-1.23-.86-.25-1.75,0-2.2.91-.44.86-.11,1.63.54,2.17,1.39,1.16,2.77,2.4,4.3,3.34,3.08,1.88,6.26,3.6,9.41,5.36,1.24.7,2.49,1.39,3.76,2.03.98.5,2.03.82,3.22.3-.08-1.47-.86-2.53-1.92-3.38Z" style="fill: #ffbd59;"/>
      </g>
    </g>
  </g>
  <path d="m85.19,87.68c11.28-8.95,19.97-27.29,14.28-41.39-1.8-4.73-6.9-9.66-12.32-7.24-2.9,1.31-4.98,5.32-6.58,7.92-2,3.45-3.87,7.09-5.48,10.77-3.43,7.52-6.31,15.43-8.78,23.35-1.06,3.75-2,7.57-2.83,11.37-.53,2.09-.97,4.16-1.26,6.3-.3,1.71-1.19,4.1-.94,5.88-.17-1.91.97-5.35,1.4-7.41.54-2.86,1.19-5.73,1.83-8.62,1.52-5.72,3.27-11.38,5.28-16.89-5.25,14.93-8.84,30.84-9.28,46.78l-.61-3.96c-.08-.3-.87-5.29-.94-5.16-.15.25-.2.48-.25.71-.34-3.38,0-7.37.05-10.85.04-4.34-.23-8.62-.19-12.96.09-4.58.54-9.03,1.19-13.54.26-1.03,2.28-12.63,2.71-13.06-.64.49-2.5,10.19-2.95,12.59.93-6.31,2.32-12.54,4.65-18.47-.17.6-.38,1.4-.29,1.38.33.03,2.05-4.12,1.83-4.16-.2.05-.38.2-.45.33.41-.87.97-1.23.65-2.45-.53-1.59-2.65-3.42-4.33-3.63-3.65-.33-4.73,4.62-6.18,6.51-2.29,3.22-2.73,6.91-3.65,10.74-.17,1.02-2.18,13.04-1.85,13.06l-.12,2.41c-.13-.08.12-.79-.12-.83-1.06.07-1.2,9.74-1.22,10.51.24,2.1.21,4.06.13,6.25-.03,1.1-.13,2.32-.04,3.48-.08.13.32,2.85.45,1.72.08.3.03.53.09.74-.13-.08-.16-.19-.19-.28-.28.19.25,3.4.25,3.83-.17,1.79-.38,3.47-.33,5.29.09,4.42,1.05,8.83,1.97,13.13.83,3.57,1.31,8.66,3.72,11.6,2.17,2.89,6.88,3.92,8.92.12l.46.53c-.37-4.24-.61-8.41-.44-12.67.4-8.34,1.85-16.32,3.03-24.54.37-2.7,1.79-5.14,2.58-7.84,1.28-4.57,2.59-9.04,4.1-13.55,2.57-7.94,5.73-16.04,9.99-23.24.82-1.4,2.25-4.61,4.21-4.58,2.91-.01,3.24,6.51,2.73,9.9v.33s-.09.12-.09.12l.03.11c-.23,2.45-.77,4.87-1.32,7.29-.03-.11.3-2.14.3-2.14-.53.03-2.3,6.46-2.62,7.31-1.3,3.27-2.73,6.46-4.54,9.44-1.64,2.82-3.56,5.39-5.61,7.88-1.27,1.32-3.27,2.4-4.32,3.75-2.32,3.11,6.34,5.92,8.79,4.5,2.06-1.19,3.34-2.94,5.94-3.31,1.27-.12,2.49,0,3.64.66.11-.03,1.69,1.07,2.13,1.5l-.08-.3c.81.98,1.3,2.04,1.69,3.12-.24-.48-.82-1.07-1.11-1.76.29,1.11,1.2,2.94,1.44,2.98.77.45.62,4.82.36,6.3-.52,2.95-1.69,5.86-3.02,8.6-2.93,5.76-6.99,10.85-11.5,15.51-4.75,4.95-10.15,9.52-16.12,13.16-2.5,1.64-5.23,2.79-8.03,4.08-1.15.53-2.3.73-.97,1.67,1.39,1.15,5.85.4,7.53.17,3.19-.2,6.18-1.2,9.16-2.65,4.79-2.36,9.57-5.57,13.67-8.93,9.82-7.92,18.64-19.25,19.31-32.21.2-3.75-.16-7.98-1.81-11.34-3.42-6.78-11.15-8.1-17.76-5.69Zm11.17,24.14c-.2,2.1-1.39,4.59-2.55,6.3-1.1,1.6-2.46,2.61-3.43,3.84l2.48-4.55c1.75-3.61,2.95-6.86,3.73-10.85l.19-1.35c.25,1.77-.13,4.8-.41,6.62Zm1.11-46.47c.56-1.99,1.5-4.62,1.92-7.12-.13,3.61-.62,6.67-2.41,10.18-.66,1.15-1.2,2.38-1.85,3.63.94-2.2,1.77-4.37,2.34-6.68Zm-44.94,45.51c-.24,1.58.05,3.89.56,5.39-.79-2.18-1.3-5.29-1.24-7.58.05-.99.48-2.29.7-3.44.15.5.3,1.11.36,1.75.15,1.38-.16,2.65-.37,3.89Zm6.35-33.66c-.05-.2,0-.42.05-.66l-.05.66Zm15.99-18.21l-.53.9.53-.9Zm-15.43,13.74c-.03-.11.01-.33.09-.46l-.09.46Z"/>
  <path d="m149.16,87.15q.01.11-.11.01v-.09c-2.12-2.53-3.68,1.64-4.39,3.14-1.38,2.66-2.66,5.2-4.18,7.68-1.24,2.1-2.61,4.24-3.53,6.39.04.21-.09.75-.09.75-.32.69-.85,1.31-1.27,2.01-.78,1.09-1.55,2.26-2.44,3.36-1.31,1.69-8.7,11.26-10.68,6.17-1.03-2.49-.71-5.82-.6-8.39.09-1.39.21-2.69.2-4.06.04-1.07-.44-2.05-.08-3.16.21-.68.33-.6,1.02-.91l1.65-.9c1.07-.6,2.14-1.19,3.08-1.99,1.4-1.18,2.66-2.54,3.83-3.89,2.78-3.2,5.68-6.96,6.38-11.21.36-2.4.07-4.9-1.71-6.63-1.61-1.54-4.05-2.1-6.18-2.18-5.76-.15-9.48,3.75-12.01,8.5-3.15,5.49-4.99,11.94-5.35,18.25-.25,3.12-.19,6.18-.2,9.37-.03,3.19.13,6.13,2.25,8.76-.26-1.02-.62-1.91-.77-2.85-.09-.52.04-1.06-.03-1.48-.04-.2-.34-.79-.4-1.1-.15-.94-.05-1.69,0-2.66-.04-.94-.29-1.85-.34-2.81-.07-1.05.23-1.95.49-2.94.17-.87.16-1.61.34-2.5.19-.77.26-1.63.44-2.5.03-.54.44-1.24.65-1.91-.16.98-.65,1.91-.71,2.77-.12,1.28.3,2.59.4,3.85.01,1.38-.19,2.79-.16,4.28.01,1.38-.41,2.71-.41,4.09,0,1.28-.26,2.28.04,3.51.11.71.33,1.43.53,2.03.24.82.83,1.24,1.46,1.79,2.09,1.79,4.74,3.06,7.54,3.36,1.95.21,3.57-.16,5.19-1.36,2.26-1.75,4.1-4.17,5.65-6.43,1.44-2.24,2.45-4.63,3.67-6.95,1.15-2.09,2.62-4.13,3.77-6.22l4.43-8.14,2.51-4.75c.42-.7.65-1.27.11-2.04Zm-25.47,5.25c.07-.23.05-.33.05-.33,1.02-3.56,1.59-7.25,3.24-10.81l1.47-2.78c.33-.58.91-1.63,1.6-1.96,1.5-.56,2.34,2.06,2.41,3.12l-.07,2.24c-.01.64.26,1.02.25,1.55-.12.65-.58,1.05-.81,1.61l-1.39,2.55c-1.93,3.18-4.55,6.04-7.58,8.33.33-1.22.46-2.41.82-3.52Z"/>
  <path d="m183.08,85.77c-.45-1.43-1.31-1.56-2.32-1.05-1.89,1.11-3.68,3.39-5.44,4.8-4.02,3.11-8.1,5.71-12.48,8.42-.01-.11-.13-.3-.26-.61.16.52.07.73-.03.85-1.46-4.39-2.91-8.78-4.17-13.29.6,1.95,1.84,5.19,2.83,7.94-1.34-4.29-2.99-9.61-2.89-9.62-.2.12-.19.33-.16.54-.33-1.23-.78-2.77-.7-4.14-.04-1.58.68-3,1.06-4.51-.04.73-.16,1.69-.16,1.69.64.04.69-3.85.65-4.28-.16-.61-1.69-2.46-1.64-1.95-3.06-2.34-8.06,3.9-8.67,6.49-.46,1.72-.3,3.49-.04,5.25.28,1.77.94,3.28,1.61,4.91.42,1.22.09,2.09.32,3.44.4,2.06,1.32,4.08,1.92,6.02.57,1.52,2.21,4.53,2.04,6.02-.08,1.48-3.1,3.02-4.37,3.98-1.67,1.31-3.32,2.83-4.96,4.34-2.91,2.7-5.97,6.02-6.87,10.01-.16.54-.68,2.9.09,3.24.12.11.26-1.71.36-1.92-.73,7.02,6.37,9.72,12.73,9.24,7.21-.46,11.85-5.1,13.75-11.79.78-2.91.82-5.86.45-8.78-.19-1.97-.57-3.84-1.06-5.69-.36-1.64-.56-1.52.5-2.57.78-.7,1.99-1.23,2.78-1.73,3.18-2.08,6.01-4.45,8.84-6.91,2.04-1.77,7-4.96,6.27-8.26v-.11Zm-38.84,39.78c-2.79-.58-.46-5.11.34-6.55,1.38-2.24,3.52-4.01,5.48-5.67l2.93-2.37c.3-.24,2.13-1.99,1.54-1.72l1.18-.85-.68.69c.2-.12.5-.25.7-.48.33,2.49.56,4.99.07,7.57-.07.42-1.67,4.78-2.42,5.69l.48-.46c-.83,1.23-1.79,2.26-2.97,3.11-.01-.11.87-.82.75-.91l-2.82,1.42c-1.43.45-3.07.91-4.58.53Zm13.42,1.81c-2.61,1.4-5.16,2.16-7.97,2.53,5.08-.79,10.17-3.79,12.8-8.34-.94,2.4-2.22,4.3-4.83,5.81Zm4.88-30.33c-.17-.73-.48-1.75-.9-2.87.32,1.13.64,2.26.9,2.87Zm2.36,10.72c-.12-.09-.13-.3-.15-.52.01.21.13.41.15.52Z"/>
  <path d="m228.47,84.97c-.13-2.3-2-.29-2.62.56-1.34,2.01-2.57,4.12-3.8,6.13-2.77,4.33-5.55,8.66-8.75,12.79-10.62,13.44-3.38-10.34-4.21-10.11-.41.11-.71,1.68-.81,2,.79-3.79,2.3-8.3,4.25-11.99,1.13-2.33,2.46-4.22.34-6.71-3.94-4.67-8.39-.32-10.87,2.97-1.1-3.97-3.26-9.81-8.39-9.76-2.3.03-3.65,1.2-5.22,2.58-.93.64-1.67.75-2.49,1.5-1.35.97-2.28,2.44-3.2,3.71-3.49,5.28-5.93,11.91-7.02,18-.48,2.94-.65,6.19.23,9.12.54,1.67,2.48,5.41,4.88,5.07.11,0-.11-.11-.42-.3,1.47.4,3.14.17,4.38-.69.12.21-1.14.75-1.14.75,1.18,1.76,9.64-8.71,10.26-9.66,1.34-1.91,2.25-3.9,3.48-5.92.93-1.47,2.37-3.38,3.4-4.96-.09.74-.08,1.68-.08,1.68-1.81,6-3.52,12.51-.93,18.66,1.19,3.12,4.05,6.02,7.61,5.35,3.14-.56,5.72-3.63,7.57-6.06,2.28-2.75,4.22-5.81,6.17-8.99,1.64-2.85,3.19-5.69,4.51-8.86.81-2,3.08-4.43,2.85-6.84Zm-30.06,1.11c-.52.73-1.03,1.47-1.44,2.21l-2.67,3.9c-1.75,2.65-3.6,5.19-5.56,7.61-.52.74-2.99,4.02-4.04,3.72-1.59-.5.03-5.97.23-6.8.29-1.48,5.65-17.67,7.11-18.02-1.88-.08-7.73,18.96-8.02,20.53.78-5.14,2.59-10.19,4.63-14.93,1.13-2.42,3.67-8.84,7.12-8.88,1.89-.03,2.36,3.84,2.69,5.1-.11-.21-1.09-3.23-1.19-3.12-.52.42,1.64,6.16,1.65,6.99q.01.85-.5,1.69Zm2.48,5.1s.29-1.47.4-1.79l.52-.74-.91,2.53Zm-1.65-6.47v-1.05c.3.41.32.73,0,1.05Z"/>
  <path d="m263.81,88.58c-.34-2.54-1.92-.98-2.62-.08-1.58,1.68-4,3.19-5.89,4.74-2.55,1.92-5.11,3.94-7.76,5.76-1.32.97-2.99,2.32-4.59,2.73-.21.09-.95.15-.97.25l-.09-.12s.01-1.67.12-1.77c.2-1.35.71-2.67,1.22-3.9.12-.2,1.52-3.68,1.31-3.69l-.57.6c.71-1.2,1.64-2.41,2.46-3.72-1.77,1.46-3.06,3.15-4.04,5.29-.49,1.01-1.77,2.82-2.09,4.37.37-2.29,2.14-5.2,2.97-6.51,1.2-2.13,2.53-4.55,4.04-6.55,2.77-3.59,8.43-6.66,7.13-12.01-1.13-5-4.99-5.39-8.22-2.77-1.55,1.26-15.09,16.28-14.8,16.51,0,0,1.14-1.18,2.62-2.86l-6.79,8.55c-.11,0,1.16-1.69,1.07-1.81-.09-.11-.89.57-1.02.98.37-2.18,1.24-4.32,1.61-6.5.16-.83.09-1.47.37-2.29.5-1.32,1.03-2.77,1.73-3.87.48-.81,1.36-1.48,1.63-2.3.52-1.34.45-1.87,1.47-2.94.9-.99,2.24-1.95,3.03-2.85,1.96-2.49-.95-4.47-2.61-4.9-1.34-.3-2.69-.5-4,.13-1.42.74-1.15,1.5-1.55,2.63-.41,1.43-1.58,3.03-2.18,4.35-.99,2.14-1.88,4.29-2.77,6.43-.98,2.13-1.96,4.17-2.74,6.31-.65,1.75-.66,3.42-.99,5.08-.33,1.87-.74,3.1.09,4.83.91,1.85,3.55,4.77,5.6,2.59l.36.86c2.04-3.73,5-7,7.45-10.6,1.06-1.61,2.81-2.65,4.29-4.33,2.06-2.38,3.9-4.77,6.17-7.03-.36.5-1.88,2.81-1.79,2.93.23-.09.34-.29.56-.49l-1.65,2.82c-.11-.11.48-.81.26-.82-.71-.25-3.32,5.44-3.56,5.96-.9,2.25-1.15,4.33-1.52,6.71-.19,1.15-.48,2.29-.56,3.43-.08,1.15-.05,2.32.38,3.49.28.65.64,1.52,1.13,2.08.11,0,1.18,1.13.71.25l.58.68-.3-.23c-.13.52,3.59,2.87,4.2,3.12,2.86,1.14,6.23-1.99,8.25-3.84,2.7-2.54,5-5.53,7.52-8.3,1.36-1.59,5.59-4.86,5.33-7.4Z"/>
  <path d="m296.83,92.19c-1.79-2.37-8.38,5.49-9.36,6.41-1.97,1.95-4.02,3.77-5.97,5.63-1.1,1.01-2.18,2.01-3.38,2.91-.23.17-2.55,2.4-2.34,2.42.33-.07.66-.23,1.01-.4-2.03,1.63-4.65,2.95-7.06,4.3-1.6.83-4.71,2.73-6.31,1.24-.66-.52-.73-1.59-.83-2.34-.28-3.32.78-7.08,1.76-10.34,2.12-6.79,5.36-13.32,9.08-19.46,1.76-2.82,3.53-5.64,6.23-7.58.24-.19.6.29.71.2.23-.08-.56-.5-.68-.41-1.23.46-2.13,1.6-2.91,2.66-2.29,2.74-4.21,5.86-5.92,9.01,1.3-2.48,2.7-4.92,4.3-7.33.91-1.26,2.05-3.31,3.55-4.17,3.92-2.3,1.27,6.74.68,8.03.01-.11.74-2.33.65-2.34-.21-.03-2.41,5.06-2.41,5.06l.58-.34c-.64.77-1.76,1.24-.54,2.36,1.5,1.38,4.99-.15,5.92-1.5.95-1.46,1.44-3.49,1.77-5.04.58-2.66.07-4.33-.57-6.53-.74-2.33-1.48-3.81-4.22-4.62-2.24-.62-4.45.01-6.41,1.13-2.85,1.5-5.15,3.61-7.19,6.08-.52.68-5.32,7.72-5.23,7.84l.49-.46c-.68,1.07-1.15,2.17-1.71,3.15-.11-.01.33-.9.24-.91-.61-.2-3.28,5.25-3.45,5.76-1.03,2.08-1.85,4.18-2.28,6.45-.45,2.48-1.22,4.91-1.68,7.49-.19,1.35-.4,2.79-.37,4.17-.07.42.46,2.71.54,2.09l.28,1.84c-.09-.12-.36-1.22-.36-1.22-.61.56,1.63,4.99,2.16,5.71.45.58,1.03.98,1.61,1.38l-1.11,1.87c-1.3,1.72-4.1,4.39-.87,4.74.73.11,4.21.17,3.65,1.88-.33.81-5.02.25-5.82.04-.82-.23-.81-1.07-1.75-.36-1.07.81-1.35,4.37-.79,5.61.58,1.14,1.02,1.09,2.26,1.26,4.18.38,9.5-1.42,9.89-6.43v-.11q-.07-.12-.05-.23l.09.12c-.08-1.71-2.04-5.89-4.2-5.56.26-.38,1.11-1.22,1.44-2.03,3.73.53,7.47-1.18,10.47-2.98,5.8-3.63,11.64-8.31,16.25-13.38,1.89-2.16,3.96-4.09,6.04-6.13,1.13-1.22,5.41-4.65,4.1-6.62Zm-33.44-5.22c-.36,1.02-.82,2.1-1.38,2.99-.41.68-1.43,1.16-1.6,1.67.45-1.73,2.05-3.31,3.15-5.16-.03.21-.16.41-.17.5Zm-5.55,11.61c-.52.66-.7,2.01-.86,3.15.07-1.26.26-2.61.85-3.79,0,0,.25.45.01.64Zm9.81-5.82l-1.99,4.38c.53-1.52,1.26-2.9,1.99-4.38Zm-9.32,3.88c-.15.3-.41.69-.44.89.07-.52.15-1.03.69-1.16l-.25.28Zm9.48-4.28l-.16.4c.01-.11.05-.3.16-.4Z"/>
  <path d="m336.47,101.66s.08.12.03-.11c-.36-.82-1.19-.46-1.95-.42-3.11-.03-6.33.03-9.52-.13,1.93-3.44,3.9-7.08,5.14-10.79.52-1.39.95-2.9.95-4.39,0-.97-.11-1.96-.45-2.89,0,0-.89-1.8-.75-.93l-.09-.12-.23-.91.32.5c.24-.6-1.26-2.09-1.26-2.09-2-3.12-5.06-5.82-8.96-4.63-2.42.77-4.61,2.44-6.49,4.17-.66.61-1.35,1.31-1.95,2.04-.58.73-1.77,3.27-2.48,3.53-.61.3-2.16.07-2.97.33-1.11.19-2.14.49-3.1.93-2.21.81-4.13,2.21-5.94,3.64-3.16,2.75-5.19,6.17-7.65,9.07-4.63,5.53-2.82,14.49,2.57,18.78,1.75,1.34,3.9,2.24,6,2.48,2.22.16,4.51-.52,6.42-1.39,1.79-.79,5.6-2.1,6.59-3.72.03-.09-.2-.04-.57.2l3.72-2.83c.08.12-.97.97-.97.97.66.46,5.52-4.16,6.02-4.47.98-1.07,1.99-2.25,3.07-3.31.91-.75.69-.7,1.8-.89-.12.08,1.3-.04,1.5,0,1.18.04,13.33,1.83,11.19-2.61Zm-39.91,12.99l-.11-.03c-8.76-.61,4.98-16.49,5.4-17.47l-.81.78c2.2-2.74,4.17-4.88,5.06-5.55.01,5.36,5.12,8.51,9.49,10.1-4.25,5.29-11.58,12.39-19.03,12.16Zm26.33-23.97c-1.34,2.7-2.78,6.35-4.87,8.59-.74.91-.36.66-1.43.65-.66.07-1.95-.42-2.54-.66-1.1-.34-2.38-.83-3.04-1.73-1.16-1.54-.54-3.44.04-5.14.58-1.69,1.46-3.22,2.42-4.73.44-.54,3.1-3.4,2.93-4.08-.04-.33-1.56,1.27-1.69,1.35.86-.99,1.61-1.48,2.28-2.08-.11-.03.03-.11.17-.29l-.03.11.15-.19s.03-.11.13-.08c1.97-1.72,6.76-5.49,8.13-1.88.95,2.99-1.58,7.7-2.63,10.15Zm-5.63-8.19l.13-.08c-.03.11-.13.08-.13.08Z"/>
  <path d="m370.43,113.72c.23-2.55-1.67-1.38-2.54-.65-1.91,1.28-4.59,2.22-6.79,3.32-2.9,1.31-5.85,2.73-8.83,3.92-1.5.65-3.43,1.6-5.08,1.65-.23.04-.97-.08-.99.03l-.07-.13s.37-1.63.5-1.71c.49-1.27,1.28-2.46,2.05-3.53.16-.17,2.28-3.26,2.08-3.32l-.68.45c.97-1.02,2.12-1.99,3.22-3.07-2.05,1.02-3.67,2.4-5.11,4.26-.7.89-2.34,2.36-2.99,3.8.86-2.14,3.23-4.61,4.33-5.69,1.64-1.81,3.45-3.89,5.36-5.51,3.49-2.9,9.7-4.65,9.6-10.14.01-5.14-3.67-6.35-7.4-4.51-1.79.89-18.29,12.56-18.05,12.85,0,0,1.36-.9,3.18-2.21l-8.51,6.86c-.09-.04,1.52-1.4,1.46-1.54-.08-.13-.99.36-1.2.73.82-2.05,2.16-3.94,2.99-6,.34-.77.42-1.4.86-2.14.79-1.18,1.61-2.46,2.54-3.39.65-.69,1.65-1.15,2.1-1.89.79-1.18.83-1.72,2.08-2.55,1.1-.75,2.61-1.4,3.57-2.09,2.46-2,.05-4.58-1.46-5.36-1.24-.6-2.51-1.09-3.93-.74-1.55.41-1.46,1.2-2.09,2.22-.71,1.31-2.21,2.62-3.1,3.77-1.43,1.87-2.77,3.76-4.1,5.67-1.43,1.87-2.83,3.63-4.06,5.56-1.02,1.56-1.39,3.19-2.08,4.74-.74,1.75-1.4,2.86-.98,4.74.49,2,2.42,5.43,4.88,3.76l.17.93c2.81-3.2,6.41-5.74,9.6-8.72,1.39-1.34,3.32-1.96,5.14-3.27,2.53-1.88,4.86-3.8,7.56-5.51-.45.41-2.45,2.33-2.38,2.46.24-.04.4-.21.66-.36l-2.25,2.4c-.07-.13.64-.69.44-.74-.64-.42-4.43,4.57-4.78,5.02-1.36,2-2.06,3.97-2.95,6.22-.44,1.07-.97,2.12-1.3,3.22-.33,1.11-.56,2.24-.38,3.49.12.7.28,1.61.62,2.28.11.03.91,1.36.65.41l.42.78-.24-.29c-.25.46,2.86,3.59,3.4,3.97,2.54,1.75,6.51-.57,8.88-1.93,3.19-1.89,6.1-4.3,9.15-6.45,1.69-1.26,6.53-3.52,6.84-6.05Z"/>
  <path d="m191.81,119.97c-.04.68-.05,1.32-.05,1.96.03.64.08,1.3.16,1.96.03.15.03.3,0,.48-.04.15-.08.3-.11.48-.04.21-.03.42.05.64.11.19.13.36.11.53,0,.08-.04.13-.11.16-.04.04-.05.08-.05.11-.04.08-.04.16,0,.26.07.08.11.16.11.26.03.53.01,1.1-.05,1.69-.08.61-.11,1.2-.11,1.8-.04.25-.05.5-.05.74.03.25,0,.48-.11.69.07.11.11.25.11.42.03.19.05.34.05.48.24.08.5.09.79.05.32-.03.61-.07.9-.11.28-.07.56-.11.85-.11s.53.05.74.16c.34.15.5.45.48.9-.04.42-.21.73-.53.9-.19.15-.41.21-.69.21s-.57-.01-.85-.05c-.29-.03-.58-.05-.9-.05-.29-.03-.56-.03-.79,0-.15.53-.24,1.09-.26,1.64v1.64c0,.15-.03.3-.05.48-.04.19-.04.34,0,.48v1.59c0,.5-.04.95-.11,1.38-.04.42-.03.87.05,1.32.03.36,0,.71-.11,1.06-.08.32-.13.68-.16,1.06v1.32c.03.46.07.95.11,1.48.49.15,1.11.21,1.85.21s1.34-.13,1.8-.42c.53.08.95.3,1.27.69.03.25.01.46-.05.64-.04.15-.11.29-.21.42-.57.21-1.2.34-1.91.37-.71,0-1.4.04-2.06.11-.32.03-.66.03-1.01,0-.36-.03-.71-.03-1.06,0-.21-.13-.42-.24-.64-.32-.19-.11-.3-.29-.37-.58-.08-.42-.04-.85.11-1.27.13-.42.21-.85.21-1.27,0-.24-.03-.49-.05-.74,0-.24.01-.49.05-.74,0-.21.01-.38.05-.53.07-.17.08-.37.05-.58-.04-.53-.04-1.02,0-1.48.03-.49.07-.95.11-1.38,0-.34.01-.71.05-1.11.03-.38.05-.79.05-1.22,0-.7.05-1.5.16-2.38.11-.87.13-1.76.11-2.65-.08-.66-.08-1.38,0-2.12.07-.74.08-1.4.05-2.01.13-.81.21-1.64.21-2.49.03-.87.01-1.75-.05-2.59-.04-.77-.04-1.5,0-2.17.03-.66.01-1.4-.05-2.22,0-.24-.05-.49-.16-.74-.08-.24-.08-.44,0-.58.03-.24.21-.4.53-.48.34-.11.65-.17.9-.21.38-.07.82-.07,1.32,0,.53.08,1.02.13,1.48.16.42,0,.86.04,1.32.11.45.08.7.29.74.64.07.32-.03.62-.26.9-.21.25-.46.37-.74.37-.21,0-.48-.01-.79-.05-.32-.03-.64-.08-.95-.16-.29-.07-.56-.11-.79-.11-.25-.03-.48-.03-.69,0Z"/>
  <path d="m201.93,142.53c.32-1.06.5-2.14.58-3.28.11-1.13.33-2.2.69-3.23.13-.53.28-1.03.42-1.54.17-.49.29-.98.37-1.48.07-.6.11-1.19.11-1.8.03-.64.08-1.23.16-1.8.07-.64.17-1.23.32-1.8.13-.56.26-1.19.37-1.91.17-.13.32-.28.42-.42.11-.17.28-.28.53-.32.17,0,.34.08.53.21.17.11.32.25.42.42.11.19.16.37.16.58,0,.19-.08.36-.21.53-.08.74-.24,1.48-.48,2.22-.21.71-.34,1.46-.37,2.22-.04.36-.04.69,0,1.01.03.29.01.61-.05.95-.04.46-.13.9-.26,1.32-.11.4-.19.79-.21,1.22-.19.25-.3.56-.37.9-.04.32-.15.58-.32.79-.04.74-.15,1.47-.32,2.17-.15.71-.21,1.42-.21,2.12-.19.25-.3.57-.37.95-.04.36-.04.69,0,1.01-.32.61-.52,1.31-.58,2.12-.04.78-.16,1.48-.37,2.12.17.82.05,1.52-.37,2.12-.4.13-.77.16-1.11.05-.32-.11-.58-.23-.79-.37-.11-.42-.19-.82-.21-1.22-.04-.42-.08-.86-.11-1.32-.04-.17-.09-.34-.16-.53-.08-.17-.13-.37-.16-.58-.08-.66-.11-1.34-.11-2.01s-.05-1.35-.16-2.06c0-.17-.04-.33-.11-.48-.04-.17-.08-.34-.11-.53-.08-.34-.11-.69-.11-1.01,0-.34-.04-.75-.11-1.22l-.53-4.34c-.04-.24-.08-.48-.11-.69v-.74c-.15-.64-.3-1.27-.48-1.91-.15-.64-.24-1.24-.26-1.85v-.21c.03-.11.05-.21.05-.32-.08-.34-.2-.77-.37-1.27-.19-.53-.24-1.01-.16-1.43.03-.24.13-.42.32-.53.21-.13.42-.19.64-.16.24,0,.48.08.69.21.21.15.34.36.42.64.07.19.08.4.05.64,0,.25.01.46.05.64.03.15.08.32.16.53.07.21.12.48.16.79,0,.08-.03.19-.05.32,0,.11.01.2.05.26.03.11.07.2.11.26.03.08.07.19.11.32.07.4.11.82.11,1.27.03.42.16.79.37,1.11.03.95.11,1.85.21,2.7.11.82.21,1.64.32,2.49.13.82.26,1.64.37,2.49.13.82.28,1.69.42,2.65Z"/>
  <path d="m210.35,136.81c.03.4.03.85,0,1.38-.04.5.01.94.16,1.32-.04.08-.08.13-.11.16,0,.04-.03.09-.05.16.11.25.13.52.11.79-.04.25-.04.46,0,.64,0,.08.01.19.05.32.03.11.05.21.05.32,0,.04-.03.11-.05.21v.16c0,.11.01.2.05.26.03.08.05.13.05.16.03.19.01.42-.05.74-.04.32-.03.62.05.9.07.32.17.71.32,1.16.13.46.28.83.42,1.11.07.11.17.3.32.58.13.29.29.42.48.42.07.04.16-.01.26-.16.13-.17.24-.32.32-.42.17-.38.28-.79.32-1.22.07-.45.21-.86.42-1.22-.08-.85-.05-1.65.05-2.44.13-.77.12-1.55-.05-2.33.17-.13.29-.24.37-.32.07-.11.21-.16.42-.16.17,0,.33.09.48.26.13.15.32.2.53.16.32.36.44.82.37,1.38-.04.53-.08,1.05-.11,1.54,0,.36.01.68.05.95.07.29.08.61.05.95-.04.29-.09.58-.16.9-.04.29-.08.57-.11.85-.08.25-.16.46-.26.64-.11.15-.2.34-.26.58-.04.11-.05.21-.05.32s-.03.2-.05.26c-.25.61-.69,1.1-1.32,1.48-.61.36-1.26.45-1.96.32-.53-.07-.94-.32-1.22-.74-.25-.45-.58-.85-1.01-1.16-.11-.66-.26-1.35-.48-2.06-.21-.74-.36-1.51-.42-2.33-.08-1.13-.09-2.28-.05-3.44.03-1.19.01-2.3-.05-3.34-.04-.81-.05-1.65-.05-2.54.03-.87.12-1.76.26-2.65.07-.53.13-1.06.21-1.59.07-.53.17-1.07.32-1.64.38-1.27.97-2.17,1.75-2.7.28-.17.64-.29,1.06-.37.42-.11.87-.11,1.38,0,.64.25,1.06.68,1.27,1.27.24.61.38,1.3.42,2.06.03.74.01,1.51-.05,2.28-.08.74-.11,1.42-.11,2.01,0,.25-.04.57-.11.95-.08.36-.09.73-.05,1.11v.53c.03.15,0,.3-.11.48-.19.25-.41.41-.69.48-.29.04-.58.05-.9.05-.32-.03-.64-.05-.95-.05s-.61.09-.85.26c-.11-.07-.24-.08-.37-.05-.11,0-.21.03-.32.05Zm1.16-9.42c-.46.95-.78,2.1-.95,3.44-.15,1.35-.24,2.65-.26,3.92h.9c.24-.03.54-.08.9-.16.24-.34.37-.77.37-1.27,0-.53.01-1.11.05-1.75.13-.85.21-1.6.21-2.28.03-.7-.05-1.39-.26-2.06-.15-.07-.25-.08-.32-.05-.04.04-.09.09-.16.16-.08.04-.15.08-.21.11-.04.04-.13.03-.26-.05Z"/>
  <path d="m224.9,150.26c-.32-.04-.58-.11-.79-.21-.21-.07-.45-.13-.69-.21-.04-.32-.13-.5-.26-.58.13-.42.19-.9.16-1.43,0-.53.01-1.01.05-1.43.07-.32.08-.64.05-.95-.04-.34-.05-.69-.05-1.01.03-.6.11-1.24.21-1.96.13-.7.23-1.43.26-2.17.03-1.55.11-3.14.21-4.77.13-1.61.21-3.19.21-4.71,0-.56-.03-1.13-.05-1.69,0-.6-.09-1.14-.26-1.64-.42.21-.74.53-.95.95-.19.42-.4.79-.64,1.11v.42c-.21.29-.36.58-.42.9-.08.29-.15.58-.21.9-.19.61-.34,1.2-.48,1.8-.15.57-.25,1.16-.32,1.8-.29.78-.45,1.59-.48,2.44-.04.82-.08,1.67-.11,2.54-.08.82-.13,1.63-.16,2.44-.04.78-.08,1.67-.11,2.65-.04.25-.04.5,0,.74.07.25.08.48.05.69v.48c0,.15-.03.34-.05.58,0,.4-.03.77-.05,1.11-.04.32-.15.61-.32.85-.5.13-.89.13-1.16,0-.29-.17-.53-.38-.74-.64.07-1.38.13-2.75.21-4.13.11-1.38.13-2.82.11-4.34-.04-.64-.03-1.24.05-1.85.07-.6.08-1.23.05-1.91-.04-1.44-.04-2.83,0-4.18.07-1.38.11-2.78.11-4.24-.04-.32-.09-.61-.16-.9-.04-.32-.05-.64-.05-.95,0-.42.13-.77.42-1.06.28-.28.64-.29,1.06-.05.13.11.29.25.48.42.21.19.32.3.32.37.03.15.01.29-.05.42-.04.15-.05.26-.05.37-.08.42-.09.79-.05,1.11.03.32.08.66.16,1.01.24-.42.49-.9.74-1.43.28-.53.58-1.01.9-1.43.34-.42.75-.74,1.22-.95.49-.21,1.07-.19,1.75.05.21.04.33.16.37.37.07.21.19.36.37.42.24.74.4,1.52.48,2.33.07.78.11,1.61.11,2.49s-.04,1.69-.11,2.54c-.04.85-.05,1.69-.05,2.54,0,.57-.04,1.11-.11,1.64-.08.5-.15,1.09-.21,1.75-.04.82-.09,1.63-.16,2.44-.04.78-.08,1.56-.11,2.33v1.01c.03.42.03.83,0,1.22-.04.36-.05.73-.05,1.11s.01.78.05,1.16c.03.36-.03.69-.16,1.01-.11.07-.21.12-.32.16-.08.03-.15.08-.21.16Z"/>
  <path d="m232.45,124.53c.38.08.79.13,1.22.16.45,0,.79.13,1.01.37.07.36.03.68-.11.95-.15.25-.32.42-.53.53-.25-.07-.53-.08-.85-.05-.29.04-.53.09-.74.16.03.61.03,1.2,0,1.8,0,.61-.08,1.2-.21,1.8.03,1.24.03,2.42,0,3.55-.04,1.14-.09,2.33-.16,3.6v.79c.03.25.03.52,0,.79-.04.46-.11.93-.21,1.38-.08.42-.11.87-.11,1.32v2.59c0,.15-.04.26-.11.37-.04.11-.05.21-.05.32-.08.61-.04,1.16.11,1.69.17.5.33,1.01.48,1.54.24.04.48.05.69.05.24-.03.44-.11.58-.21.17-.11.29-.26.37-.48.07-.24.17-.48.32-.69.07-.11.13-.17.21-.21.07-.03.13-.08.21-.16.07-.17.12-.33.16-.48.03-.17.11-.33.21-.48.28-.42.54-.7.79-.85.21.08.32.25.32.53,0,.25.08.45.26.58-.15.89-.37,1.67-.69,2.33-.32.68-.79,1.2-1.43,1.59-.4-.07-.74-.01-1.06.16-.29.17-.62.26-1.01.26-.36-.04-.77-.16-1.22-.37-.42-.21-.73-.49-.9-.85-.08-.07-.15-.21-.21-.42-.08-.21-.13-.37-.16-.48-.15-.38-.24-.82-.26-1.32-.04-.53-.04-1.06,0-1.59.03-.56.07-1.13.11-1.69.03-.56.05-1.11.05-1.64.03-.64.08-1.32.16-2.06.07-.74.11-1.46.11-2.17.03-.95.11-1.85.21-2.7s.08-1.61-.05-2.33c.13-.49.19-1.06.16-1.69,0-.64.01-1.28.05-1.96.03-.42.08-.85.16-1.27.11-.42.11-.82,0-1.22-.32,0-.66.04-1.01.11-.36.08-.71.08-1.06,0-.08-.13-.16-.26-.26-.37l-.32-.32c-.08-.13-.13-.28-.16-.42,0-.13.07-.29.21-.48.32-.24.71-.34,1.22-.32.53,0,.97-.05,1.32-.16.07-1.16.16-2.3.26-3.44.13-1.16.21-2.33.21-3.49.13-.21.34-.32.64-.32.32-.03.6-.01.85.05.34.32.53.69.53,1.11.03.42.01.85-.05,1.27-.04.36-.05.77-.05,1.22.03.42.03.83,0,1.22-.08.4-.15.78-.21,1.16-.04.4-.04.83,0,1.32Z"/>
  <g style="clip-path: url(#clippath-3);">
    <g style="clip-path: url(#clippath-4);">
      <g style="clip-path: url(#clippath-5);">
        <g style="clip-path: url(#clippath-6);">
          <path d="m28.23,87.56c-.68.4-1.55.16-1.95-.52-8.22-14.23-3.35-32.5,10.87-40.7,1.58-.93,3.03,1.56,1.42,2.46-12.85,7.43-17.26,23.95-9.82,36.82.38.68.16,1.55-.52,1.93Z" style="fill: #fbb03b;"/>
        </g>
      </g>
    </g>
  </g>
  <g style="clip-path: url(#clippath-7);">
    <g style="clip-path: url(#clippath-8);">
      <g style="clip-path: url(#clippath-9);">
        <g style="clip-path: url(#clippath-10);">
          <path d="m27.2,86.52c-.68.4-1.55.16-1.93-.52-8.23-14.23-3.36-32.5,10.85-40.7,1.58-.93,3.03,1.56,1.42,2.46-12.85,7.43-17.26,23.95-9.82,36.82.4.68.16,1.55-.52,1.93Z" style="fill: #fbb03b;"/>
        </g>
      </g>
    </g>
  </g>
  <g style="clip-path: url(#clippath-11);">
    <g style="clip-path: url(#clippath-12);">
      <g style="clip-path: url(#clippath-13);">
        <g style="clip-path: url(#clippath-14);">
          <path d="m19.43,84.85c-10.74-9.95-8.19-29.88,4.7-36.81-9.7,9.69-11.67,25-4.7,36.81Z" style="fill: #fbb03b;"/>
        </g>
      </g>
    </g>
  </g>
  <g style="clip-path: url(#clippath-15);">
    <g style="clip-path: url(#clippath-16);">
      <g style="clip-path: url(#clippath-17);">
        <path d="m287.75,40.9c-.15,1.18-.46,1.87-1.06,2.36-4.54,3.81-9.05,7.66-14.23,10.58-1.15.66-2.4.99-3.67,1.27-.73.16-1.42.44-1.99.95-.28.25-.65.48-.97.04-.24-.34.05-.57.23-.85,4.41-6.9,11.42-10.89,17.43-15.98.97-.82,2.16-.86,3.28-.28.93.48,1.03,1.36.97,1.91Z" style="fill: #ffbd59; fill-rule: evenodd;"/>
      </g>
    </g>
  </g>
  <g style="clip-path: url(#clippath-18);">
    <g style="clip-path: url(#clippath-19);">
      <g style="clip-path: url(#clippath-20);">
        <path d="m239.16,21.58c-.4,3.69-.95,7.36-1.56,11.03-.37,2.2-1.24,4.12-2.85,5.67-.28.28-.53.85-.99.56-.56-.34-.03-.71.16-1.05.26-.48.34-.98.23-1.5-.56-2.53-.3-5.07.01-7.57.78-6.1,1.58-12.2,2.78-18.24.24-1.16.66-2.14,1.71-2.78,1.16-.73,1.8-.42,1.91,1.01.03.5-.03,1.03-.07,1.55-.28,3.79-.83,7.56-1.32,11.33Z" style="fill: #ffbd59; fill-rule: evenodd;"/>
      </g>
    </g>
  </g>
  <g style="clip-path: url(#clippath-21);">
    <g style="clip-path: url(#clippath-22);">
      <g style="clip-path: url(#clippath-23);">
        <path d="m187.8,22.42c.15-1.14.64-1.75,1.6-1.85.9-.11,1.27.52,1.59,1.26,1.03,2.41,2.45,4.62,3.76,6.87,2.66,4.58,5.04,9.27,6.09,14.53.08.36.32.75-.15.99-.32.16-.53-.12-.62-.38-.64-1.65-1.99-2.79-2.97-4.2-3.31-4.7-6.02-9.77-8.72-14.84-.41-.78-.78-1.61-.58-2.38Z" style="fill: #ffbd59; fill-rule: evenodd;"/>
      </g>
    </g>
  </g>
  <g style="clip-path: url(#clippath-24);">
    <g style="clip-path: url(#clippath-25);">
      <g style="clip-path: url(#clippath-26);">
        <path d="m211.39,28.95c.04-.58.38-1.05,1.01-1.28.52-.19,1.11-.16,1.36.36.97,2.08,2.82,3.63,3.3,5.98.07.36.33.7-.04,1.02-.41.36-.66-.05-.98-.19-1.93-.79-3.31-2.18-4.28-4.02-.28-.56-.46-1.13-.37-1.87Z" style="fill: #ffbd59; fill-rule: evenodd;"/>
      </g>
    </g>
  </g>
  <g style="clip-path: url(#clippath-27);">
    <g style="clip-path: url(#clippath-28);">
      <g style="clip-path: url(#clippath-29);">
        <path d="m254.73,45.07c.71-1.4,1.92-2.34,2.99-3.39.66-.65,1.39-1.24,2.09-1.84.28-.23.57-.58.94-.17.3.33.01.62-.16.86-1.51,2.09-3.67,3.34-5.86,4.54Z" style="fill: #ffbd59; fill-rule: evenodd;"/>
      </g>
    </g>
  </g>
  <g style="clip-path: url(#clippath-30);">
    <g style="clip-path: url(#clippath-31);">
      <g style="clip-path: url(#clippath-32);">
        <path d="m222.32,54.22c.28-.15.6-.3.86-.44.36-.15.73-.26,1.07-.4h.08c.41-.12.85-.29,1.36-.44.41-.13.93-.29,1.39-.38.45-.12.91-.19,1.32-.24l.5-.08c.2-.04.45-.08.71-.07.24-.01.54-.03.85-.03.15,0,.26,0,.41.01.15.01.28.01.45,0,.3,0,.6.01.85.01.57.08,1.15.16,1.69.26.4.08.79.17,1.15.28.25.08.49.13.75.19.13.04.23.05.37.07.2.05.4.09.6.13.26.08.52.16.74.23l.4.08c.25.08.52.16.79.25.23.07.46.17.68.25l.03.03c.26.12.61.25.9.38.11.07.26.12.37.19.13.09.32.16.46.24.56.26,1.15.6,1.81.99l.11.07c.49.3,1.02.62,1.55.98.17.11.32.23.49.33.11.07.17.15.28.21l.11.07c.2.12.34.25.54.37.15.12.32.26.46.4.09.09.24.19.33.28.12.11.25.19.34.29.16.12.32.23.46.36.24.17.45.38.66.58l.19.2.12.11c.24.23.52.46.77.74.24.23.46.48.74.75.19.19.33.4.49.57l.2.24c.2.28.45.54.68.79.13.16.3.3.44.46l.09.09c.04.07.09.09.16.13.29.19.74.13,1.02-.08.09-.03.2-.07.28-.15.28-.21.57-.45.89-.73.15-.11.29-.21.38-.3l.12-.08c.12-.08.23-.17.32-.28.09-.09.23-.17.36-.28.26-.19.37-.54.29-.9v-.17c-.03-.16-.11-.28-.21-.42l-.05-.11c-.09-.13-.19-.3-.29-.45-.11-.13-.23-.29-.3-.41-.09-.11-.2-.24-.28-.37l-.13-.15c-.09-.15-.23-.25-.32-.36-.03-.05-.09-.09-.13-.15-.16-.19-.3-.36-.46-.53-.2-.24-.42-.49-.64-.69-.19-.2-.38-.38-.57-.57-.24-.23-.46-.48-.69-.73-.41-.49-.94-.89-1.4-1.28l-.15-.13c-.12-.11-.29-.21-.41-.32-.33-.28-.68-.57-1.05-.83l-.08-.04c-.42-.3-.86-.65-1.3-.91-.15-.08-.3-.19-.45-.26-.26-.17-.57-.36-.83-.54l-.16-.11c-.17-.11-.32-.23-.48-.33t-.07-.03c-.21-.13-.46-.29-.75-.42-.49-.26-.97-.48-1.44-.73l-.21-.09c-.38-.19-.7-.34-1.03-.48-.25-.07-.49-.17-.78-.26l-.21-.03-.44-.15c-.49-.19-1.03-.36-1.54-.52-.56-.13-1.11-.28-1.67-.42-.09-.03-.17-.03-.26-.05-1.32-.3-2.38-.48-3.4-.56-.64-.08-1.23-.09-1.79-.09-.15,0-.32.01-.45,0-.15-.01-.26,0-.41-.01-.3.01-.58.03-.85.03h-.12.12c-.42.01-.83.07-1.23.11-.21.03-.41.05-.6.05-.61.07-1.23.15-1.91.28-.6.09-1.19.28-1.88.48-.44.12-1.02.3-1.61.49-.46.13-.95.33-1.56.58-.34.15-.66.29-.98.45l-.33.23-.11.05c-.2.07-.38.19-.58.26-.21.11-.41.25-.62.34l-.08.07-.17.09c-.23.13-.48.29-.73.45-.04.01-.05.04-.12.08-.12.08-.23.13-.32.23l-.03.03c-.13.11-.3.2-.48.29-.36.21-.66.41-1.01.66-.21.17-.41.37-.61.52-.17.16-.33.3-.54.45-.28.21-.52.49-.77.71l-.11.11c-.11.12-.24.2-.34.32-.24.21-.46.45-.69.7-.05.09-.12.12-.17.21-.03.05-.09.09-.12.15l-.07.04c-.08.07-.13.16-.2.2-.3.32-.6.68-.89,1.03-.13.16-.24.33-.34.49-.03.07-.07.12-.09.17l-.04.05s-.03.07-.07.12c-.11.17-.16.33-.21.53-.03.09-.01.21.03.32.01.05,0,.08.03.09.03.09.05.16.08.24.05.16.15.25.29.33.05.04.09.11.13.16.07.08.11.15.19.2.15.12.28.28.42.41l.09.09c.07.08.16.17.24.23.07.04.07.08.12.11l.07.04.05.03.05.04s.07.08.09.09c.12.12.2.24.33.32.23.13.45.2.68.15.17-.05.33-.11.46-.26.05-.04.12-.08.16-.13.15-.19.28-.33.42-.52.05-.08.13-.16.2-.26.23-.25.45-.5.74-.78.25-.24.49-.52.86-.87.29-.28.61-.56.9-.79.08-.07.15-.11.23-.17l.34-.26c.34-.25.68-.5,1.05-.78.21-.19.46-.34.71-.5.24-.16.52-.29.77-.45l.11-.05c.45-.26.98-.56,1.47-.81.11-.05.29-.17.5-.26Z" style="fill: #ffbd59;"/>
      </g>
    </g>
  </g>
</svg>